<svg width="256" height="256" viewBox="0 0 256 256" fill="none" xmlns="http://www.w3.org/2000/svg">
<path d="M128.015 248.579C194.573 248.579 248.53 194.583 248.53 127.977C248.53 61.3703 194.573 7.375 128.015 7.375C61.4563 7.375 7.5 61.3703 7.5 127.977C7.5 194.583 61.4563 248.579 128.015 248.579Z" fill="white" stroke="white" stroke-width="2.078"/>
<path d="M128 249C194.826 249 249 194.826 249 128C249 61.1735 194.826 7 128 7C61.1735 7 7 61.1735 7 128C7 194.826 61.1735 249 128 249Z" fill="white" stroke="#7BB276" stroke-width="2.36482"/>
<path d="M69.944 147.039C69.7678 146.927 69.5775 146.8 69.3638 146.68C69.1497 146.562 68.9215 146.439 68.6915 146.303C68.4554 146.177 68.2111 146.046 67.9622 145.913C67.708 145.791 67.4597 145.649 67.1973 145.533C65.8399 144.884 64.3621 144.409 62.8557 143.966C61.3331 143.518 59.7781 143.147 58.2253 142.729C56.6734 142.313 55.1244 141.862 53.5963 141.342C51.4072 140.601 49.2545 139.718 47.2036 138.623C45.1605 137.517 43.228 136.188 41.5171 134.607C40.5478 133.692 39.6528 132.695 38.8789 131.612C38.0967 130.535 37.4328 129.382 36.8529 128.197C36.1699 126.797 35.7952 125.6 35.4753 124.563C35.281 123.949 35.382 124.129 35.7247 124.918C36.1734 125.928 36.6135 126.987 37.1295 127.986C37.5297 128.774 37.9649 129.545 38.455 130.278C38.9449 131.012 39.4877 131.707 40.069 132.368C41.2367 133.687 42.5564 134.869 43.9828 135.906C46.8383 137.987 50.0846 139.484 53.4275 140.653C55.4257 141.353 57.4665 141.934 59.5192 142.48C61.5715 143.028 63.6515 143.56 65.6512 144.381C66.3453 144.668 67.0271 144.994 67.7438 145.401C68.102 145.605 68.4665 145.834 68.8406 146.094C69.0217 146.233 69.2079 146.375 69.4001 146.522C69.4917 146.602 69.5879 146.678 69.6768 146.767C69.7644 146.856 69.8536 146.947 69.944 147.039Z" fill="#7EAD49"/>
<path d="M140.927 24.4601C167.808 22.5623 194.927 43.675 198.495 78.3092C202.063 112.943 186.363 137.852 167.808 155.643C149.253 173.435 133.791 179.84 128.795 189.091C128.795 189.091 124.038 181.737 102.153 169.165C80.2673 156.592 52.4351 143.308 43.3956 108.436C34.356 73.5648 49.8184 33.9489 96.6812 50.5544C96.6812 50.5544 114.047 26.3579 140.927 24.4601Z" fill="#7BB276"/>
<path d="M126.185 90.7322C126.728 91.286 121.509 90.676 114.48 92.3329C107.45 93.9898 98.5742 98.9012 92.9744 108.132C87.3747 117.364 88.0896 134.406 88.0896 134.406C88.0896 134.406 79.5113 132.512 71.8861 129.435C64.261 126.358 61.1633 125.056 64.9758 118.665C68.7884 112.275 81.4176 99.7297 94.285 92.9838C107.152 86.2379 122.819 87.297 126.185 90.7322Z" fill="#F9D9BF"/>
<path d="M134.04 25.5535C133.588 25.6969 133.043 25.8075 132.452 25.8992C132.156 25.9451 131.848 25.9862 131.535 26.0244C131.221 26.056 130.904 26.1244 130.586 26.17C128.912 26.4163 127.197 26.7465 125.479 27.1516C122.009 27.9648 118.601 29.1655 115.417 30.8052C110.844 33.1349 106.755 36.3956 103.398 40.2801C101.472 42.5019 99.7668 44.9209 98.3369 47.4859C97.497 48.9983 96.8294 50.2212 96.2708 51.3173C96.1072 51.6417 96.0187 51.7491 96.0018 51.6486C95.9865 51.5474 96.0468 51.2458 96.2186 50.7863C96.6561 49.6055 97.2044 48.4152 97.8129 47.285C99.7305 43.7266 102.184 40.4668 105.038 37.6122C106.462 36.1816 108.004 34.8691 109.633 33.6796C111.263 32.4926 112.967 31.399 114.764 30.483C116.9 29.3724 119.127 28.4405 121.417 27.6972C123.715 26.9835 126.063 26.4335 128.441 26.0647C129.268 25.9423 130.102 25.8628 131.009 25.7545C131.917 25.6695 132.905 25.6305 134.04 25.5535Z" fill="#1D4A41"/>
<path d="M156.621 27.0411C158.284 26.9471 160.593 26.9093 162.917 26.961C164.441 26.9992 165.996 27.0789 167.558 27.3102C169.117 27.5411 170.687 27.9306 172.17 28.5875C172.539 28.7628 172.921 28.9156 173.27 29.1315C173.625 29.3363 173.992 29.5241 174.321 29.7711C175.008 30.2134 175.657 30.7568 176.201 31.3812C177.305 32.628 178.052 34.1022 178.859 35.4921C179.262 36.1893 179.678 36.8737 180.152 37.5095C180.628 38.1471 181.17 38.7073 181.786 39.2087C183.022 40.2185 184.418 41.0428 185.769 41.9656C186.736 42.6268 187.69 43.341 188.518 44.2063C189.328 45.0763 190.06 45.9879 190.75 46.9419C192.124 48.8498 193.269 50.9082 194.263 53.0267C194.76 54.0865 195.213 55.1657 195.637 56.2544C196.06 57.3442 196.465 58.4387 196.803 59.5597L197.333 61.2318C197.501 61.7915 197.628 62.3625 197.778 62.9272C197.918 63.4945 198.077 64.0574 198.2 64.6282L198.543 66.3461L198.739 67.3299L198.89 68.3214L199.182 70.305C199.312 71.6349 199.485 72.9607 199.544 74.2948C199.648 75.626 199.664 76.9602 199.699 78.2922L199.684 80.2902C199.681 80.9559 199.64 81.6206 199.62 82.2852C199.482 85.4175 199.1 87.9189 198.633 90.0641C198.488 90.6997 198.391 90.9041 198.373 90.7425C198.356 90.5827 198.407 90.0492 198.52 89.1911C198.793 86.982 198.963 84.6676 199.058 82.3939C199.333 75.2382 198.657 68.0104 196.652 61.1311L195.839 58.5728C195.539 57.728 195.23 56.8869 194.898 56.0551C194.235 54.3913 193.499 52.7568 192.657 51.1799C192.239 50.3898 191.786 49.6196 191.314 48.8614C190.83 48.1119 190.336 47.3669 189.791 46.6609C189.53 46.2993 189.238 45.9612 188.962 45.6111C188.669 45.2786 188.387 44.9241 188.081 44.6141C187.476 43.9779 186.786 43.4186 186.065 42.8969C185.205 42.272 184.296 41.7007 183.397 41.0997C182.5 40.4934 181.605 39.8759 180.8 39.109C179.99 38.3416 179.354 37.4294 178.795 36.4998C178.232 35.5695 177.733 34.6163 177.186 33.7046C176.638 32.7967 176.032 31.9305 175.287 31.2086C175.198 31.1135 175.101 31.0288 175.001 30.9472L174.705 30.6971C174.499 30.5387 174.277 30.3938 174.064 30.2413L173.741 30.0151C173.633 29.9397 173.515 29.8816 173.402 29.8139L172.718 29.4207C170.842 28.4612 168.769 27.9114 166.657 27.6444C165.188 27.4473 163.7 27.3544 162.071 27.2879C160.442 27.2181 158.669 27.1904 156.621 27.0411Z" fill="#1D4A41"/>
<path d="M197.699 94.0836C197.783 93.1866 197.945 92.1212 198.148 90.9712C198.2 90.6839 198.253 90.391 198.307 90.094C198.355 89.7958 198.405 89.4933 198.454 89.188C198.558 88.5785 198.664 87.9575 198.77 87.3362C199.302 84.0693 199.779 80.678 200.054 77.2243C200.346 73.7398 200.454 70.2246 200.252 66.7205C200.225 66.2828 200.206 65.8443 200.173 65.407L200.04 64.0977C199.97 63.2225 199.824 62.3573 199.699 61.4892C199.644 61.0538 199.554 60.6248 199.469 60.1947L199.214 58.9051L198.897 57.6298C198.843 57.4177 198.795 57.2038 198.735 56.9931L198.545 56.365C197.832 53.9622 196.856 51.636 195.586 49.4791C194.298 47.3346 192.716 45.3627 190.859 43.6795C189.934 42.8353 188.95 42.0546 187.922 41.3309C186.895 40.6041 185.823 39.9416 184.747 39.2608C183.674 38.5591 182.618 37.8016 181.699 36.8813C180.771 35.9697 180.025 34.89 179.346 33.8236C178.578 32.5927 177.744 31.4542 176.673 30.5198C175.615 29.5815 174.369 28.8335 173.111 28.1794C171.831 27.5631 170.453 27.1409 169.049 26.8545C167.645 26.5618 166.21 26.4053 164.774 26.3256C163.08 26.2334 161.546 26.2436 160.138 26.2808C158.73 26.3235 157.447 26.3992 156.251 26.5049C155.544 26.5695 155.29 26.5676 155.453 26.4888C155.616 26.4128 156.193 26.2713 157.141 26.1419C159.575 25.8135 162.139 25.6484 164.657 25.7627C166.637 25.8538 168.622 26.0931 170.552 26.611C171.516 26.8713 172.465 27.2042 173.372 27.6402C173.595 27.756 173.825 27.8618 174.041 27.9864L174.687 28.3625C175.125 28.6005 175.531 28.8948 175.947 29.1728C176.754 29.7614 177.54 30.4038 178.193 31.1741C178.859 31.9312 179.407 32.7735 179.936 33.5953C180.465 34.4188 181.011 35.2099 181.649 35.926C182.283 36.6462 183.022 37.2669 183.786 37.8558C184.179 38.1369 184.58 38.4065 184.982 38.6787L186.227 39.4647C187.059 39.9909 187.884 40.5395 188.686 41.1204C189.492 41.6966 190.257 42.3294 191.006 42.9793C191.738 43.6496 192.455 44.3374 193.109 45.0846C194.432 46.5639 195.581 48.1966 196.535 49.9324C197.491 51.668 198.255 53.502 198.867 55.3801C199.033 55.9455 199.217 56.5065 199.369 57.0756L199.792 58.7916L200.13 60.5249C200.191 60.8131 200.234 61.104 200.274 61.3954L200.4 62.2687L200.525 63.1423L200.611 64.02C200.662 64.6054 200.739 65.1894 200.769 65.7762L200.865 67.5365L200.888 67.9765L200.905 69.2979C200.955 71.6478 200.823 73.9942 200.662 76.3355C200.55 77.5034 200.441 78.672 200.311 79.8379C200.151 80.9999 200.014 82.1655 199.836 83.3247C199.568 84.9346 199.32 86.5495 198.955 88.2918C198.632 90.0429 198.185 91.9174 197.699 94.0836Z" fill="#1D4A41"/>
<path d="M42.1556 103.256C41.4978 101.522 40.9404 98.9416 40.5311 96.3456C39.9906 92.9328 39.6286 89.3632 39.5595 85.7323C39.494 82.0678 39.6779 78.3752 40.238 74.7211C40.5161 72.8945 40.8867 71.0781 41.375 69.2899C41.8566 67.5004 42.4559 65.7391 43.1882 64.0316C44.2357 61.5878 45.5443 59.2405 47.1714 57.1199C47.9822 56.0587 48.8659 55.0518 49.8169 54.1117C50.7683 53.1745 51.7819 52.2881 52.8694 51.5164C55.0009 49.9134 57.3101 48.5352 59.7567 47.4572C62.2019 46.377 64.7802 45.599 67.4107 45.1338C68.167 45.0198 68.9191 44.8734 69.682 44.8113L70.8229 44.6944L71.9678 44.632L72.5401 44.6012L73.1132 44.5968L74.2589 44.5896L75.4032 44.6324L75.9752 44.6547L76.5456 44.7003C79.5897 44.9243 82.5966 45.4985 85.512 46.3449C87.2302 46.8444 88.744 47.4099 90.0989 47.9993C91.4527 48.5916 92.6524 49.2013 93.7284 49.8366C94.3674 50.215 94.5482 50.395 94.3737 50.3462C94.1976 50.3006 93.6505 50.0375 92.759 49.62C90.4652 48.5541 87.987 47.6325 85.5004 46.9224C81.59 45.7925 77.5236 45.1666 73.455 45.2036C71.4225 45.2245 69.3896 45.3959 67.3903 45.7632C65.3926 46.1373 63.4315 46.6894 61.5292 47.4011C59.627 48.1185 57.8149 49.0497 56.0655 50.08C55.2158 50.6362 54.3426 51.1582 53.5404 51.7839C52.7167 52.3799 51.9099 52.9951 51.1651 53.6821C49.6491 55.0271 48.3095 56.5621 47.1206 58.2015C45.9471 59.8533 44.931 61.6171 44.0898 63.4629C43.5858 64.5634 43.1361 65.6891 42.7387 66.8334C42.3463 67.9797 42.004 69.1432 41.7067 70.3183C41.1081 72.6683 40.7123 75.0682 40.446 77.4802C39.9317 82.3095 39.9787 87.1923 40.4117 92.0327C40.5653 93.717 40.7569 95.3996 41.0256 97.2254C41.2985 99.0474 41.6287 101.029 42.1556 103.256Z" fill="#1D4A41"/>
<path d="M127.44 187.707C126.386 186.563 124.927 184.989 123.235 183.666C121.033 181.906 118.5 180.453 115.894 179.074C110.603 176.314 105.17 173.719 99.7476 171.114C95.8631 169.249 91.9706 167.388 88.1047 165.468C84.2501 163.54 80.3502 161.628 76.7742 159.155C74.7324 157.741 72.8053 156.133 71.1514 154.269C69.4927 152.412 68.1019 150.346 66.8701 148.213C65.4267 145.69 64.5151 143.543 63.7376 141.666C63.2808 140.551 63.5696 140.831 64.3016 142.265C65.2421 144.106 66.2374 146.009 67.294 147.828C68.125 149.259 69.0283 150.647 70.0223 151.964C71.0186 153.28 72.1258 154.506 73.335 155.629C75.7568 157.877 78.5578 159.696 81.4514 161.325C82.902 162.137 84.3805 162.905 85.8677 163.659C87.3563 164.412 88.8491 165.157 90.3467 165.894C93.3408 167.368 96.3486 168.817 99.3565 170.268C102.947 172.001 106.539 173.73 110.106 175.516C111.89 176.409 113.668 177.311 115.435 178.242C117.202 179.174 118.95 180.157 120.626 181.265C121.788 182.041 122.921 182.873 124.061 183.895C125.197 184.918 126.349 186.131 127.44 187.707Z" fill="#1D4A41"/>
<path d="M159.227 127.32C159.227 147.391 142.741 163.652 122.588 163.652C102.436 163.652 86.0986 147.381 86.0986 127.31C86.0986 107.239 102.515 90.9683 122.668 90.9683C142.82 90.9683 159.227 107.249 159.227 127.32Z" fill="#97B6C9"/>
<path d="M105.802 62.9351C105.802 62.9351 107.049 65.9599 106.099 70.7046C105.149 75.4494 105.327 77.5252 109.484 81.5582C113.642 85.5912 118.512 88.0822 122.908 88.2008L124.749 91.2256C124.749 91.2256 138.588 91.107 149.635 102.969C154.099 107.761 160.881 119.793 158.901 131.971C157.161 142.674 151.061 154.904 137.044 161.032C126.143 165.799 117.641 156.485 115.266 157.434C112.89 158.383 119.539 160.646 119.859 163.128C120.116 165.125 106.792 160.835 104.337 159.016C104.337 159.016 104.852 165.896 116.731 169.929C128.61 173.962 146.903 169.692 158.188 159.846C169.473 150.001 176.838 143.24 177.907 133.157C178.976 123.075 168.998 104.214 159.97 96.0296C150.942 87.845 140.251 85.8285 135.499 81.0837C130.748 76.339 128.134 70.0522 128.134 70.0522C128.134 70.0522 130.213 69.6371 129.501 66.3751C128.788 63.1131 125.283 63.0538 122.789 64.1806C120.294 65.3075 117.859 66.4937 113.583 64.6551C109.306 62.8165 105.802 62.9351 105.802 62.9351Z" fill="#F9D9BF"/>
<path d="M123.724 91.0182C123.769 91.0387 123.834 90.9697 123.898 90.952C123.963 90.9271 124.031 90.9156 124.098 90.9057C124.275 90.8801 124.454 90.8508 124.631 90.8353C124.813 90.8183 124.987 90.7997 125.149 90.7514C125.232 90.7281 125.313 90.6991 125.385 90.6658C125.455 90.6354 125.524 90.5858 125.538 90.5642C125.541 90.5555 125.54 90.5606 125.536 90.5516C125.529 90.5427 125.494 90.4994 125.454 90.469C125.359 90.3943 125.247 90.3127 125.142 90.238C124.929 90.0861 124.711 89.9423 124.487 89.8108C124.232 89.6583 123.972 89.5127 123.699 89.3942C123.54 89.3221 123.42 89.2287 123.309 89.1504C123.275 89.1302 123.264 89.1236 123.276 89.112C123.287 89.1035 123.325 89.0735 123.381 89.0649C123.514 89.0724 123.65 89.1007 123.781 89.1372C124.185 89.2741 124.567 89.4653 124.925 89.6879C125.104 89.7993 125.279 89.9177 125.449 90.0409L125.575 90.1342C125.616 90.1639 125.659 90.1964 125.709 90.2415C125.732 90.2605 125.756 90.2837 125.779 90.3142C125.801 90.343 125.824 90.3666 125.843 90.4145C125.889 90.4957 125.883 90.6043 125.851 90.6933C125.794 90.8015 125.726 90.8552 125.66 90.8976C125.594 90.9392 125.53 90.9688 125.465 90.9944C125.336 91.044 125.209 91.0774 125.076 91.1016C124.808 91.1424 124.558 91.1467 124.302 91.1376C124.214 91.1341 124.126 91.1268 124.031 91.1163C123.983 91.1107 123.934 91.1047 123.882 91.0985C123.856 91.0943 123.829 91.0936 123.802 91.086C123.789 91.0802 123.774 91.0844 123.761 91.0686L123.724 91.0182Z" fill="#DB9E7B"/>
<path d="M114.586 83.0078C114.586 84.6327 113.264 85.9498 111.633 85.9498C110.002 85.9498 108.68 84.6327 108.68 83.0078C108.68 81.383 110.002 80.0659 111.633 80.0659C113.264 80.0659 114.586 81.383 114.586 83.0078Z" fill="#F2B7AA"/>
<path d="M126.571 73.49C126.571 75.1149 125.249 76.432 123.618 76.432C121.988 76.432 120.666 75.1149 120.666 73.49C120.666 71.8652 121.988 70.5481 123.618 70.5481C125.249 70.5481 126.571 71.8652 126.571 73.49Z" fill="#F2B7AA"/>
<path d="M114.205 65.4637C114.205 65.4637 114.68 68.9052 112.701 68.6283C110.722 68.3514 111.593 65.6614 111.593 65.6614C111.593 65.6614 108.506 65.8197 108.506 63.9209C108.506 62.0221 111.553 62.8924 111.553 62.8924C111.553 62.8924 109.97 60.5189 111.355 59.7673C112.741 59.0157 113.809 61.9825 113.809 61.9825C113.809 61.9825 115.432 59.7673 116.698 60.4793C117.965 61.1914 115.432 63.4857 115.432 63.4857C115.432 63.4857 118.403 63.9118 117.807 65.701C117.173 67.5998 114.205 65.4637 114.205 65.4637Z" fill="#E05642"/>
<path d="M114.238 64.0585C114.238 64.5841 113.81 65.0103 113.283 65.0103C112.755 65.0103 112.327 64.5841 112.327 64.0585C112.327 63.5329 112.755 63.1067 113.283 63.1067C113.81 63.1067 114.238 63.5329 114.238 64.0585Z" fill="#FFFFFE"/>
<path d="M146.857 100.487C144.659 101.487 135.047 106.033 136.471 108.345C138.077 110.951 144.681 105.205 146.287 108.108C147.894 111.01 136.114 112.254 132.426 115.513C128.737 118.771 128.083 121.97 129.57 123.925C131.057 125.879 136.174 124.398 140.1 122.325C144.027 120.252 147.834 122.384 147.477 125.998C147.12 129.612 148.548 129.671 149.5 128.427C150.452 127.183 151.344 125.642 152.355 126.057C153.277 126.435 155.919 130.948 159.019 130.944C159.118 129.852 159.227 128.745 159.227 127.627C159.227 116.839 154.355 107.141 146.857 100.487Z" fill="#7EAD49"/>
<path d="M128.509 100.571C129.625 99.9753 128.733 95.7911 126.995 94.5333C124.525 92.7458 121.417 93.1828 120.939 94.9703C120.461 96.7578 121.736 97.3139 123.887 97.9495C126.039 98.585 127.394 101.167 128.509 100.571Z" fill="#7EAD49"/>
<path d="M99.0572 131.634C101.322 131.456 100.548 126.533 100.548 123.746C100.548 120.959 102.396 120.603 106.569 120.247C110.742 119.891 112.47 117.104 113.663 115.325C114.855 113.546 120.459 114.258 120.816 111.055C121.174 107.853 117.12 105.659 116.464 104.591C115.809 103.524 117.597 101.922 116.166 100.618C114.736 99.313 113.007 101.151 111.218 101.329C109.43 101.507 109.072 99.0758 107.463 97.2967C106.62 96.3652 105.353 95.9707 104.31 95.8142C97.567 99.6929 92.1862 105.653 89.0513 112.81C89.5024 119.092 92.0219 121.551 93.9303 122.975C96.0764 124.576 96.7918 131.811 99.0572 131.634Z" fill="#7EAD49"/>
<path d="M107.729 158.792C109.928 159.03 109.749 156.238 110.522 152.852C111.294 149.466 115.335 144.535 115.097 141.149C114.859 137.763 111.532 136.278 108.561 135.268C105.59 134.258 105.531 132.952 103.451 132.714C100.361 132.361 97.3311 134.437 97.3905 138.06C97.4499 141.684 101.074 144.654 102.203 147.624C103.332 150.595 105.531 158.555 107.729 158.792Z" fill="#7EAD49"/>
<path d="M158.358 134.768C153.526 130.979 146.572 134.962 142.773 135.299C138.779 135.653 132.64 127.273 129.779 129.634C126.919 131.994 131.21 137.423 133.534 141.259C135.859 145.095 132.64 145.508 131.031 152.294C129.832 157.35 131.067 160.736 131.985 162.268C133.331 161.968 134.653 161.92 135.918 161.481C147.797 157.354 155.896 146.855 158.358 134.768Z" fill="#7EAD49"/>
<path d="M38.0751 70.9809C38.0747 70.9837 38.0747 70.9832 38.0678 70.9786C38.0669 70.9783 38.0658 70.9786 38.0649 70.9783C38.0723 70.9811 38.0746 70.9827 38.0751 70.9809Z" fill="#31322E"/>
<path d="M38.075 70.97C38.0663 70.9839 38.066 70.9896 38.0654 70.9915C38.0658 70.9885 38.0661 70.9816 38.075 70.97Z" fill="#31322E"/>
<path d="M38.072 70.9796C38.0687 70.9789 38.0658 70.9796 38.0625 70.9794C38.0675 70.9797 38.0725 70.9799 38.077 70.9814C38.0752 70.9807 38.0747 70.9802 38.072 70.9796Z" fill="#31322E"/>
<path d="M38.0704 70.9811L38.0701 70.9797C38.0699 70.9806 38.0697 70.9811 38.0699 70.9819C38.0699 70.9815 38.0706 70.9813 38.0704 70.9811Z" fill="#31322E"/>
<path d="M38.0791 70.9808C38.0717 70.9803 38.0665 70.98 38.0605 70.9805C38.0658 70.98 38.0724 70.9805 38.0791 70.9808Z" fill="#31322E"/>
<path d="M38.0693 70.9809C38.0699 70.9806 38.0705 70.98 38.0712 70.9797C38.0706 70.98 38.0699 70.9806 38.0693 70.9809Z" fill="#31322E"/>
<path d="M38.0708 70.9756C38.0681 70.976 38.0681 70.976 38.066 70.9763C38.0674 70.9762 38.069 70.9762 38.0708 70.9758L38.063 70.99V70.9951L38.0723 70.9756L38.0768 70.9663C38.0762 70.9667 38.0757 70.9668 38.0753 70.9672L38.0708 70.9756Z" fill="#31322E"/>
<path d="M38.07 70.9795L38.0703 70.9804L38.0704 70.9815L38.0701 70.9799L38.07 70.9792L38.0698 70.979L38.07 70.9795Z" fill="#31322E"/>
<path d="M38.0679 70.9841C38.0694 70.9834 38.0706 70.9822 38.0721 70.9817C38.0745 70.9807 38.073 70.9787 38.0723 70.9768C38.0731 70.9793 38.0735 70.9819 38.0701 70.9827C38.0692 70.9829 38.0687 70.9837 38.0679 70.9841Z" fill="#31322E"/>
<path d="M38.0733 70.9736V70.9734L38.0659 70.9873C38.0664 70.9869 38.0669 70.9866 38.0673 70.9864L38.0733 70.9736Z" fill="#31322E"/>
<path d="M106.769 104.64C106.769 106.074 105.603 107.236 104.164 107.236C102.725 107.236 101.558 106.074 101.558 104.64C101.558 103.206 102.725 102.044 104.164 102.044C105.603 102.044 106.769 103.206 106.769 104.64Z" fill="#F2B7AA"/>
<path d="M138.209 104.64C138.209 106.074 139.376 107.236 140.815 107.236C142.253 107.236 143.42 106.074 143.42 104.64C143.42 103.206 142.253 102.044 140.815 102.044C139.376 102.044 138.209 103.206 138.209 104.64Z" fill="#F2B7AA"/>
<path d="M122.783 79.2007C122.857 79.2461 122.922 79.3088 122.97 79.3821C123.011 79.4555 123.043 79.539 123.056 79.6233C123.102 79.8449 123.115 80.0875 123.066 80.323C122.969 80.7974 122.751 81.2615 122.416 81.6374C122.18 81.9085 121.886 82.1345 121.565 82.3049C121.242 82.4729 120.891 82.581 120.534 82.634C120.123 82.6907 119.704 82.6591 119.311 82.5543C119.196 82.521 119.096 82.4789 119.012 82.4223C118.929 82.364 118.861 82.2989 118.797 82.247C118.758 82.218 118.745 82.2082 118.762 82.1985C118.778 82.1921 118.831 82.1679 118.895 82.1721C119.059 82.1828 119.215 82.2119 119.368 82.2448C120.338 82.4334 121.414 82.1304 122.064 81.4051C122.453 80.9754 122.69 80.42 122.75 79.8595C122.762 79.762 122.768 79.6644 122.775 79.5577C122.775 79.5043 122.775 79.4487 122.775 79.3899C122.77 79.3314 122.771 79.2694 122.783 79.2007Z" fill="#0B0B09"/>
<path d="M123.267 82.1426C123.29 82.1663 123.35 82.2041 123.374 82.2386C123.401 82.2738 123.415 82.3097 123.423 82.3446C123.446 82.4372 123.454 82.5382 123.426 82.627C123.37 82.8057 123.271 82.9776 123.133 83.1147C122.937 83.3152 122.672 83.447 122.401 83.5047C122.246 83.5385 122.083 83.5322 121.931 83.4975C121.84 83.4741 121.776 83.3987 121.723 83.3639C121.692 83.3393 121.708 83.3079 121.754 83.2994C121.782 83.2995 121.813 83.2763 121.842 83.2618C121.871 83.2493 121.899 83.2412 121.927 83.2334C122.098 83.1968 122.264 83.1736 122.421 83.1071C122.577 83.0427 122.719 82.9537 122.841 82.8408C122.985 82.7039 123.082 82.5247 123.143 82.3437C123.153 82.3118 123.169 82.2824 123.184 82.249C123.192 82.232 123.199 82.2145 123.207 82.1958C123.223 82.1787 123.213 82.1553 123.267 82.1426Z" fill="#0B0B09"/>
<path d="M119.59 77.6219C119.584 77.7335 119.637 77.885 119.62 78.0489C119.607 78.2118 119.553 78.3835 119.476 78.545C119.276 78.9707 118.917 79.3548 118.461 79.5831C118.003 79.8143 117.482 79.9088 116.973 79.8909C116.846 79.8888 116.719 79.8762 116.592 79.8612L116.403 79.8316C116.337 79.8186 116.297 79.8124 116.164 79.7813L116.08 79.7622L116.037 79.7526L116.016 79.7478C116.014 79.7424 116.016 79.7337 116.015 79.7268L116.016 79.5502L116.015 79.3397C116.009 79.2201 116.007 79.1005 115.993 78.9814C115.868 77.6112 115.286 76.3025 114.461 75.1933C113.988 74.5553 113.453 73.9605 112.88 73.4031C112.712 73.2386 112.568 73.0805 112.435 72.9344C112.298 72.7937 112.175 72.6628 112.055 72.5464C111.914 72.4077 111.98 72.4241 112.196 72.5772C112.34 72.6693 112.473 72.7813 112.619 72.8794C112.767 72.9758 112.901 73.0897 113.035 73.2017C113.862 73.9257 114.611 74.7575 115.194 75.7048C115.774 76.6503 116.188 77.7171 116.296 78.8357C116.311 79.0022 116.321 79.1693 116.324 79.3368L116.324 79.5011C116.321 79.5066 116.33 79.5063 116.335 79.5078L116.398 79.5191C116.706 79.5758 117.02 79.5902 117.327 79.5612C117.941 79.5015 118.53 79.2594 118.939 78.8226C119.081 78.6732 119.207 78.508 119.314 78.3131C119.369 78.2163 119.413 78.1092 119.454 77.9946C119.496 77.8778 119.501 77.754 119.59 77.6219Z" fill="#0B0B09"/>
<path d="M111.248 74.452C111.23 74.3636 111.201 74.2774 111.16 74.2025C111.112 74.1284 111.073 74.0649 111.057 74.009C111.042 74.0493 111.026 74.087 111.009 74.1229C110.988 74.159 111.006 74.1879 110.998 74.2198C110.984 74.2823 110.995 74.3383 110.988 74.3937C110.983 74.5033 110.979 74.6042 110.967 74.7049C110.905 75.2875 110.612 75.8499 110.163 76.2605C109.79 76.606 109.332 76.8747 108.854 77.0472C108.375 77.2195 107.857 77.2862 107.376 77.1917C107.3 77.1758 107.223 77.1601 107.148 77.1403C107.109 77.134 107.073 77.1176 107.034 77.1114C106.994 77.1057 106.952 77.1048 106.912 77.0971C106.851 77.0847 106.798 77.0995 106.78 77.1089C106.76 77.1206 106.768 77.139 106.803 77.1758C106.861 77.2388 106.923 77.3193 107.007 77.3828C107.092 77.4435 107.194 77.497 107.315 77.5301C107.395 77.5515 107.476 77.5651 107.558 77.5782C107.555 77.5949 107.55 77.612 107.549 77.6285C107.537 77.7383 107.525 77.8448 107.513 77.956C107.506 78.0324 107.506 78.111 107.507 78.1918C107.507 78.2316 107.526 78.2771 107.543 78.3225C107.552 78.3557 107.584 78.3977 107.631 78.4379C107.691 78.4031 107.693 78.3609 107.71 78.3253C107.743 78.216 107.755 78.1024 107.775 77.9915C107.797 77.8638 107.807 77.7343 107.81 77.6045C107.897 77.6096 107.985 77.6106 108.072 77.6071C108.069 77.6388 108.067 77.6704 108.066 77.7015C108.065 77.8145 108.064 77.9244 108.063 78.0389C108.062 78.116 108.068 78.1931 108.072 78.2727C108.072 78.3113 108.098 78.3571 108.113 78.4024C108.119 78.4198 108.125 78.4371 108.137 78.4563C108.148 78.4747 108.174 78.4993 108.167 78.5083C108.209 78.5102 108.209 78.4959 108.219 78.4861C108.226 78.4756 108.234 78.4656 108.241 78.4561C108.254 78.4366 108.266 78.4183 108.276 78.3993C108.299 78.3428 108.301 78.2812 108.308 78.2227C108.312 78.1635 108.316 78.1053 108.32 78.0471C108.329 77.8911 108.324 77.7387 108.312 77.5889C108.399 77.5778 108.486 77.5651 108.571 77.5461C108.592 77.5415 108.611 77.5349 108.632 77.5299C108.629 77.5515 108.625 77.5732 108.624 77.5947C108.62 77.7155 108.621 77.8361 108.626 77.9568C108.631 78.041 108.646 78.1255 108.667 78.2102C108.677 78.2522 108.708 78.2944 108.74 78.3359C108.764 78.3674 108.798 78.3995 108.911 78.4273C108.916 78.3731 108.923 78.3332 108.922 78.293C108.92 78.1777 108.907 78.0624 108.907 77.9477C108.907 77.7835 108.905 77.6191 108.895 77.4552C109.137 77.3769 109.371 77.2767 109.592 77.1558C109.911 76.982 110.212 76.7687 110.474 76.5094C110.841 76.1502 111.123 75.6869 111.242 75.1879C111.302 74.9412 111.295 74.6838 111.248 74.452Z" fill="#0B0B09"/>
<path d="M115.684 71.0665C115.598 71.0265 115.518 70.9769 115.452 70.918C115.389 70.852 115.334 70.797 115.281 70.7681C115.326 70.7626 115.368 70.7566 115.409 70.7478C115.451 70.7358 115.476 70.7613 115.511 70.7605C115.578 70.7616 115.632 70.7872 115.691 70.7928C115.803 70.8155 115.907 70.8358 116.013 70.8487C116.623 70.9292 117.271 70.7746 117.803 70.4279C118.25 70.1414 118.64 69.751 118.937 69.3169C119.235 68.8821 119.434 68.3826 119.46 67.8809C119.463 67.8012 119.466 67.7213 119.465 67.6411C119.469 67.6005 119.461 67.5615 119.465 67.5208C119.469 67.48 119.479 67.4376 119.481 67.3962C119.484 67.3321 119.512 67.2834 119.527 67.2671C119.544 67.2502 119.56 67.2623 119.589 67.3062C119.638 67.3797 119.705 67.4606 119.748 67.5604C119.789 67.66 119.817 67.7747 119.82 67.9029C119.822 67.9875 119.815 68.0718 119.808 68.156C119.825 68.1574 119.844 68.1572 119.861 68.1596C119.976 68.1745 120.088 68.189 120.204 68.2041C120.284 68.2156 120.364 68.2347 120.446 68.2556C120.487 68.2652 120.528 68.2953 120.57 68.323C120.602 68.3405 120.637 68.3827 120.666 68.4397C120.615 68.4909 120.572 68.4818 120.531 68.4906C120.411 68.496 120.292 68.4805 120.174 68.4737C120.038 68.4644 119.904 68.4424 119.771 68.4135C119.754 68.5021 119.732 68.5893 119.707 68.6757C119.74 68.6801 119.773 68.6854 119.804 68.6928C119.92 68.7194 120.032 68.7452 120.149 68.7721C120.228 68.7901 120.305 68.8144 120.385 68.8383C120.425 68.8475 120.465 68.8841 120.507 68.9106C120.523 68.9211 120.54 68.9308 120.556 68.9477C120.572 68.9625 120.59 68.9951 120.601 68.9901C120.593 69.0322 120.578 69.0292 120.566 69.0359C120.553 69.0412 120.541 69.0461 120.529 69.0508C120.506 69.0592 120.484 69.0666 120.463 69.0722C120.399 69.0812 120.336 69.0678 120.274 69.0608C120.213 69.0504 120.153 69.0402 120.092 69.03C119.931 69.001 119.777 68.9579 119.627 68.9101C119.594 68.994 119.559 69.0773 119.518 69.1574C119.508 69.1765 119.496 69.1948 119.486 69.2138C119.509 69.2161 119.532 69.218 119.554 69.2222C119.678 69.2471 119.801 69.2777 119.923 69.3127C120.007 69.3374 120.09 69.3731 120.171 69.4146C120.211 69.4351 120.246 69.4762 120.28 69.5183C120.306 69.5504 120.33 69.5919 120.33 69.7107C120.273 69.7027 120.231 69.6998 120.19 69.6892C120.073 69.659 119.959 69.6182 119.842 69.5895C119.675 69.5494 119.507 69.5079 119.343 69.4573C119.202 69.6789 119.04 69.8875 118.861 70.078C118.603 70.3531 118.309 70.6012 117.978 70.7989C117.519 71.0758 116.975 71.2437 116.436 71.24C116.169 71.2401 115.908 71.1697 115.684 71.0665Z" fill="#0B0B09"/>
<path d="M107.942 99.795C108.9 99.75 108.937 102.541 107.982 102.384C107.026 102.227 107.106 99.8342 107.942 99.795Z" fill="#0B0B09"/>
<path d="M137.209 99.795C136.252 99.75 136.214 102.541 137.169 102.384C138.125 102.227 138.045 99.8342 137.209 99.795Z" fill="#0B0B09"/>
<path d="M120.386 102.39C120.511 102.62 120.538 102.904 120.566 103.194C120.602 103.572 120.66 103.958 120.722 104.342C120.786 104.729 120.879 105.113 121.031 105.466C121.179 105.819 121.393 106.141 121.682 106.358C121.886 106.517 122.132 106.613 122.394 106.648C122.657 106.685 122.934 106.67 123.179 106.595C123.677 106.445 124.031 106.009 124.237 105.506C124.474 104.926 124.585 104.279 124.631 103.634C124.657 103.253 124.718 102.944 124.787 102.665C124.824 102.498 124.923 102.539 124.955 102.76C124.994 103.043 125.015 103.339 125.005 103.629C124.989 104.087 124.937 104.546 124.831 104.999C124.72 105.45 124.559 105.905 124.255 106.299C124.105 106.494 123.918 106.67 123.698 106.802C123.478 106.935 123.225 107.01 122.975 107.043C122.723 107.077 122.473 107.065 122.225 107.016C121.976 106.97 121.733 106.871 121.525 106.725C121.016 106.378 120.737 105.831 120.572 105.303C120.407 104.767 120.34 104.217 120.321 103.67C120.31 103.288 120.322 102.913 120.386 102.39Z" fill="#0B0B09"/>
<path d="M126.05 95.8004C125.966 95.8211 125.903 95.8171 125.864 95.7981C125.808 95.776 125.751 95.753 125.71 95.7192C125.627 95.6513 125.548 95.5807 125.478 95.5037C125.378 95.391 125.281 95.2815 125.182 95.1698C125.127 95.1047 125.075 95.0372 125.03 94.9628C125 94.9221 125.008 94.8612 125.008 94.8132C125.007 94.7855 125.034 94.7702 125.069 94.7779C125.115 94.7861 125.153 94.804 125.182 94.8289C125.279 94.9025 125.355 94.994 125.439 95.0787L125.68 95.3422C125.775 95.4475 125.876 95.5493 125.966 95.6583C125.993 95.6995 126.036 95.7305 126.05 95.8004Z" fill="#1D4A41"/>
<path d="M127.266 98.0316C127.137 98.0773 127.082 98.0662 127.037 98.049C126.978 98.0264 126.919 98.0018 126.882 97.9637C126.806 97.8868 126.74 97.8032 126.685 97.7129C126.607 97.5834 126.538 97.4482 126.473 97.311C126.441 97.2293 126.424 97.1385 126.401 97.0522C126.388 97.0005 126.415 96.9371 126.43 96.8867C126.439 96.8564 126.475 96.8432 126.502 96.8598C126.535 96.8828 126.577 96.9018 126.597 96.933C126.664 97.0294 126.738 97.1217 126.791 97.2268L126.964 97.5327C127.034 97.6536 127.121 97.7645 127.193 97.8843C127.219 97.9257 127.237 97.9718 127.266 98.0316Z" fill="#1D4A41"/>
<path d="M132.227 118.383C132.218 118.401 132.21 118.433 132.201 118.46C132.191 118.486 132.179 118.509 132.167 118.528L132.168 118.53C132.165 118.514 132.165 118.498 132.165 118.483C132.168 118.41 132.175 118.336 132.205 118.279C132.265 118.164 132.338 118.057 132.425 117.962C132.549 117.826 132.695 117.712 132.843 117.604C132.928 117.542 133.028 117.498 133.129 117.46C133.187 117.435 133.259 117.45 133.312 117.452C133.344 117.453 133.354 117.48 133.339 117.516C133.321 117.563 133.298 117.605 133.269 117.638C133.18 117.743 133.077 117.829 132.978 117.92C132.879 118.011 132.786 118.108 132.692 118.204C132.582 118.32 132.489 118.452 132.395 118.58C132.376 118.604 132.359 118.631 132.325 118.657L132.13 118.33C132.141 118.334 132.155 118.34 132.171 118.346C132.187 118.355 132.203 118.353 132.227 118.383Z" fill="#1D4A41"/>
<path d="M134.617 116.749C134.604 116.723 134.587 116.689 134.571 116.651C134.56 116.616 134.559 116.584 134.564 116.556C134.575 116.482 134.597 116.406 134.641 116.351C134.729 116.239 134.828 116.14 134.928 116.058C135.002 115.999 135.062 115.946 135.139 115.878C135.214 115.815 135.291 115.748 135.382 115.693C135.486 115.629 135.603 115.576 135.727 115.546C135.803 115.534 135.873 115.555 135.927 115.572C135.959 115.579 135.957 115.61 135.93 115.636C135.893 115.665 135.86 115.7 135.826 115.727C135.713 115.801 135.609 115.888 135.507 115.989C135.403 116.082 135.299 116.197 135.175 116.302C135.033 116.424 134.897 116.539 134.79 116.655C134.771 116.674 134.752 116.693 134.73 116.714C134.721 116.725 134.709 116.733 134.695 116.742C134.686 116.746 134.687 116.756 134.669 116.754C134.652 116.752 134.635 116.751 134.617 116.749Z" fill="#1D4A41"/>
<path d="M134.472 118.657C134.4 118.558 134.383 118.49 134.388 118.44C134.39 118.37 134.397 118.3 134.424 118.247C134.478 118.139 134.542 118.038 134.618 117.95C134.726 117.821 134.853 117.711 134.984 117.609C135.059 117.551 135.142 117.505 135.225 117.459C135.275 117.433 135.343 117.452 135.394 117.459C135.424 117.461 135.435 117.489 135.427 117.53C135.415 117.578 135.394 117.617 135.368 117.647C135.188 117.815 135.018 117.992 134.853 118.175C134.756 118.286 134.674 118.411 134.59 118.532C134.559 118.573 134.531 118.615 134.472 118.657Z" fill="#1D4A41"/>
<path d="M136.665 117.076C136.659 117.024 136.635 116.932 136.652 116.893C136.666 116.831 136.681 116.769 136.713 116.727C136.777 116.643 136.845 116.562 136.925 116.498C137.039 116.403 137.158 116.314 137.278 116.225C137.348 116.176 137.429 116.138 137.503 116.092C137.547 116.066 137.6 116.062 137.649 116.062C137.678 116.061 137.697 116.089 137.684 116.116C137.667 116.151 137.648 116.186 137.625 116.215C137.481 116.405 137.305 116.562 137.136 116.727C137.036 116.826 136.937 116.928 136.834 117.025C136.816 117.042 136.796 117.057 136.775 117.072C136.764 117.08 136.752 117.088 136.74 117.097C136.731 117.108 136.693 117.085 136.665 117.076Z" fill="#1D4A41"/>
<path d="M137.354 115.193C137.334 115.103 137.336 115.029 137.357 114.988C137.381 114.928 137.408 114.87 137.447 114.832C137.527 114.757 137.612 114.689 137.704 114.633C137.836 114.553 137.971 114.479 138.112 114.415C138.194 114.382 138.278 114.351 138.369 114.333C138.424 114.325 138.482 114.344 138.53 114.354C138.557 114.358 138.563 114.382 138.549 114.416C138.53 114.457 138.503 114.489 138.477 114.519C138.384 114.598 138.28 114.656 138.179 114.719L137.871 114.9C137.749 114.974 137.635 115.062 137.517 115.142C137.471 115.162 137.441 115.21 137.354 115.193Z" fill="#1D4A41"/>
<path d="M154.691 125.58C154.672 125.565 154.603 125.57 154.566 125.558C154.522 125.548 154.491 125.53 154.461 125.511C154.384 125.461 154.306 125.409 154.251 125.344C154.14 125.212 154.03 125.08 153.939 124.936C153.809 124.73 153.68 124.525 153.55 124.319C153.478 124.2 153.417 124.073 153.35 123.95C153.314 123.875 153.321 123.789 153.323 123.717C153.321 123.676 153.353 123.667 153.407 123.685C153.472 123.712 153.519 123.756 153.562 123.8C153.806 124.1 154.021 124.42 154.234 124.741C154.363 124.932 154.493 125.122 154.614 125.318C154.635 125.352 154.653 125.388 154.673 125.426C154.683 125.47 154.74 125.494 154.691 125.58Z" fill="#1D4A41"/>
<path d="M156.778 125.926C156.741 125.924 156.706 125.915 156.66 125.911C156.62 125.903 156.588 125.889 156.558 125.873C156.482 125.832 156.407 125.787 156.355 125.728C156.25 125.61 156.152 125.487 156.069 125.356C155.954 125.167 155.849 124.972 155.747 124.776C155.688 124.664 155.65 124.54 155.605 124.421C155.58 124.35 155.581 124.282 155.579 124.224C155.578 124.19 155.608 124.185 155.64 124.215C155.681 124.254 155.724 124.293 155.761 124.336C155.989 124.603 156.156 124.902 156.356 125.184C156.469 125.356 156.594 125.521 156.713 125.69C156.732 125.72 156.754 125.748 156.769 125.785C156.775 125.825 156.818 125.85 156.778 125.926Z" fill="#1D4A41"/>
<path d="M136.291 134.796C136.269 134.806 136.214 134.863 136.179 134.882C136.142 134.904 136.111 134.912 136.083 134.916C136.008 134.926 135.93 134.931 135.869 134.907C135.748 134.859 135.635 134.79 135.538 134.702C135.469 134.639 135.404 134.571 135.345 134.497C135.292 134.418 135.242 134.337 135.198 134.253C135.146 134.157 135.112 134.05 135.086 133.942C135.073 133.877 135.098 133.805 135.112 133.749C135.121 133.715 135.158 133.703 135.189 133.722C135.227 133.749 135.27 133.772 135.301 133.802C135.391 133.899 135.466 134.004 135.554 134.098C135.644 134.19 135.727 134.286 135.817 134.376C135.926 134.483 136.057 134.56 136.179 134.645C136.201 134.659 136.221 134.676 136.242 134.695C136.253 134.704 136.265 134.713 136.277 134.724C136.286 134.738 136.311 134.729 136.291 134.796Z" fill="#1D4A41"/>
<path d="M136.813 134.053C136.793 134.046 136.743 134.06 136.707 134.059C136.668 134.061 136.636 134.054 136.606 134.045C136.528 134.022 136.448 133.996 136.386 133.955C136.262 133.87 136.145 133.775 136.041 133.672C135.893 133.523 135.752 133.368 135.639 133.195C135.573 133.097 135.511 132.996 135.461 132.89C135.433 132.827 135.43 132.764 135.43 132.708C135.43 132.675 135.466 132.664 135.497 132.689C135.536 132.722 135.584 132.752 135.622 132.787C135.74 132.897 135.841 133.017 135.953 133.129L136.277 133.476C136.408 133.612 136.559 133.732 136.698 133.861C136.723 133.883 136.745 133.907 136.77 133.933C136.793 133.961 136.835 133.975 136.813 134.053Z" fill="#1D4A41"/>
<path d="M138.207 136.571C138.19 136.572 138.145 136.623 138.117 136.633C138.087 136.649 138.06 136.654 138.035 136.655C137.968 136.657 137.9 136.654 137.843 136.627C137.729 136.573 137.622 136.5 137.528 136.41C137.392 136.281 137.271 136.131 137.165 135.972C137.102 135.882 137.059 135.775 137.014 135.672C136.988 135.612 136.992 135.544 136.999 135.484C137.004 135.448 137.039 135.432 137.065 135.455C137.097 135.485 137.13 135.515 137.157 135.55C137.331 135.762 137.496 135.981 137.698 136.155C137.817 136.26 137.949 136.345 138.079 136.427C138.102 136.441 138.124 136.456 138.147 136.474C138.158 136.484 138.17 136.495 138.182 136.506C138.191 136.525 138.218 136.508 138.207 136.571Z" fill="#1D4A41"/>
<path d="M135.953 146.174C135.913 146.138 135.887 146.115 135.868 146.098C135.841 146.072 135.828 146.047 135.819 146.024C135.794 145.963 135.772 145.9 135.778 145.845C135.79 145.733 135.813 145.624 135.853 145.519C135.916 145.372 135.997 145.231 136.083 145.093C136.138 145.017 136.203 144.944 136.279 144.877C136.323 144.837 136.382 144.816 136.426 144.794C136.451 144.781 136.468 144.795 136.472 144.829C136.474 144.871 136.47 144.912 136.464 144.951C136.44 145.073 136.394 145.184 136.345 145.294C136.296 145.405 136.25 145.516 136.208 145.628C136.151 145.76 136.115 145.899 136.071 146.035C136.064 146.058 136.054 146.081 136.043 146.106C136.036 146.118 136.033 146.132 136.023 146.144C136.019 146.159 135.995 146.168 135.953 146.174Z" fill="#1D4A41"/>
<path d="M134.965 149.288C134.841 149.226 134.794 149.164 134.778 149.108C134.752 149.035 134.729 148.957 134.736 148.886C134.749 148.743 134.785 148.603 134.839 148.47C134.923 148.281 135.032 148.102 135.152 147.932C135.225 147.837 135.312 147.75 135.395 147.662C135.451 147.616 135.511 147.587 135.562 147.562C135.593 147.548 135.613 147.571 135.599 147.606C135.575 147.648 135.568 147.702 135.551 147.748L135.357 148.162C135.293 148.299 135.234 148.438 135.185 148.58C135.12 148.747 135.084 148.923 135.038 149.093C135.019 149.152 135.007 149.212 134.965 149.288Z" fill="#1D4A41"/>
<path d="M136.986 148.25C136.886 148.185 136.842 148.116 136.836 148.056C136.821 147.975 136.812 147.892 136.83 147.815C136.866 147.661 136.919 147.508 136.992 147.364C137.093 147.155 137.228 146.96 137.374 146.775C137.455 146.667 137.559 146.571 137.656 146.476C137.714 146.419 137.778 146.385 137.83 146.354C137.861 146.335 137.872 146.354 137.853 146.393C137.828 146.442 137.803 146.494 137.776 146.542L137.517 146.997C137.434 147.149 137.356 147.303 137.282 147.458C137.196 147.644 137.135 147.838 137.079 148.031C137.069 148.065 137.058 148.098 137.044 148.134C137.027 148.169 137.028 148.212 136.986 148.25Z" fill="#1D4A41"/>
<path d="M109.939 151.365C109.947 151.349 109.871 151.323 109.848 151.298C109.818 151.273 109.801 151.247 109.789 151.221C109.755 151.154 109.723 151.082 109.722 151.013C109.719 150.873 109.733 150.732 109.768 150.596C109.815 150.399 109.91 150.215 110.008 150.037C110.064 149.935 110.141 149.842 110.214 149.75C110.256 149.696 110.315 149.665 110.368 149.639C110.399 149.624 110.424 149.646 110.415 149.682C110.402 149.728 110.389 149.776 110.372 149.82C110.319 149.959 110.266 150.097 110.218 150.236C110.169 150.375 110.136 150.517 110.097 150.657C110.053 150.826 110.038 150.999 110.024 151.17C110.021 151.2 110.016 151.229 110.009 151.262C110.006 151.278 110.003 151.294 110 151.312C109.998 151.321 109.998 151.33 109.994 151.34C109.99 151.344 109.997 151.349 109.983 151.353L109.939 151.365Z" fill="#1D4A41"/>
<path d="M108.846 149.807C108.813 149.784 108.772 149.756 108.749 149.73C108.725 149.703 108.714 149.677 108.707 149.652C108.688 149.586 108.673 149.517 108.684 149.453C108.705 149.325 108.738 149.196 108.798 149.077C108.883 148.905 108.989 148.742 109.108 148.588C109.173 148.498 109.262 148.42 109.343 148.342C109.391 148.295 109.452 148.272 109.506 148.253C109.538 148.242 109.558 148.264 109.544 148.296C109.525 148.337 109.506 148.38 109.482 148.419C109.338 148.665 109.186 148.904 109.081 149.162C109.019 149.316 108.969 149.473 108.929 149.631C108.922 149.658 108.912 149.685 108.902 149.714C108.885 149.742 108.899 149.779 108.846 149.807Z" fill="#1D4A41"/>
<path d="M111.013 148.936C111.03 148.927 110.985 148.885 110.969 148.856C110.951 148.825 110.945 148.798 110.943 148.773C110.937 148.706 110.934 148.638 110.956 148.581C111 148.465 111.061 148.356 111.135 148.253C111.241 148.106 111.363 147.967 111.5 147.837C111.585 147.766 111.684 147.704 111.776 147.638C111.831 147.6 111.895 147.581 111.945 147.562C111.974 147.55 111.988 147.567 111.977 147.599C111.961 147.64 111.946 147.683 111.926 147.722C111.857 147.841 111.796 147.964 111.709 148.072C111.631 148.185 111.541 148.292 111.461 148.404C111.366 148.537 111.287 148.679 111.197 148.814C111.181 148.838 111.164 148.86 111.144 148.885C111.134 148.897 111.126 148.91 111.111 148.922C111.097 148.934 111.093 148.952 111.013 148.936Z" fill="#1D4A41"/>
<path d="M101.88 144.094C101.854 144.095 101.827 144.093 101.789 144.097C101.756 144.097 101.731 144.09 101.709 144.08C101.65 144.055 101.592 144.025 101.556 143.98C101.482 143.889 101.418 143.789 101.371 143.68C101.3 143.526 101.259 143.356 101.23 143.187C101.212 143.091 101.209 142.99 101.212 142.89C101.211 142.832 101.238 142.78 101.27 142.733C101.289 142.706 101.329 142.705 101.344 142.733C101.363 142.768 101.38 142.806 101.393 142.843C101.439 142.959 101.468 143.078 101.511 143.193C101.553 143.308 101.598 143.422 101.644 143.534C101.701 143.668 101.778 143.79 101.853 143.911C101.865 143.932 101.876 143.955 101.887 143.98C101.894 144.008 101.929 144.018 101.88 144.094Z" fill="#1D4A41"/>
<path d="M101.029 142.015C100.954 142.027 100.884 142.017 100.851 141.985C100.799 141.948 100.749 141.905 100.718 141.85C100.656 141.74 100.606 141.62 100.575 141.494C100.528 141.313 100.512 141.123 100.516 140.936C100.525 140.828 100.544 140.721 100.572 140.618C100.591 140.558 100.621 140.511 100.659 140.474C100.681 140.451 100.714 140.464 100.719 140.497C100.727 140.54 100.729 140.583 100.739 140.626L100.778 141.02C100.791 141.15 100.812 141.278 100.838 141.405C100.871 141.556 100.927 141.7 100.987 141.838C100.998 141.862 101.007 141.886 101.016 141.914C101.021 141.944 101.05 141.962 101.029 142.015Z" fill="#1D4A41"/>
<path d="M99.2718 139.943C99.2266 139.935 99.1967 139.929 99.175 139.925C99.1421 139.917 99.1165 139.905 99.0957 139.89C99.0398 139.853 98.9861 139.812 98.9559 139.762C98.8952 139.663 98.8486 139.556 98.8217 139.446C98.7806 139.289 98.7725 139.126 98.7829 138.965C98.7877 138.874 98.8106 138.782 98.8314 138.693C98.8434 138.64 98.888 138.6 98.937 138.568C98.966 138.549 99.0114 138.56 99.018 138.589C99.0261 138.626 99.0326 138.664 99.0318 138.701C99.0261 138.933 99.0603 139.162 99.1104 139.388C99.1433 139.522 99.201 139.651 99.2622 139.776C99.273 139.798 99.2818 139.82 99.2909 139.845C99.2889 139.873 99.3223 139.891 99.2718 139.943Z" fill="#1D4A41"/>
<path d="M109.027 137.833C108.933 137.871 108.855 137.875 108.801 137.855C108.727 137.832 108.651 137.808 108.594 137.765C108.48 137.678 108.371 137.584 108.274 137.48C108.132 137.333 108.014 137.164 107.889 137.001C107.818 136.907 107.757 136.804 107.697 136.701C107.66 136.641 107.645 136.58 107.638 136.521C107.633 136.486 107.664 136.47 107.696 136.493C107.738 136.521 107.777 136.555 107.816 136.586C107.941 136.686 108.05 136.801 108.164 136.912C108.275 137.025 108.391 137.133 108.499 137.249C108.627 137.387 108.772 137.511 108.903 137.647C108.926 137.67 108.947 137.696 108.97 137.723C108.992 137.751 109.021 137.778 109.027 137.833Z" fill="#1D4A41"/>
<path d="M94.2946 120.722C94.2719 120.717 94.286 120.715 94.2747 120.727C94.2646 120.737 94.2634 120.734 94.275 120.731C94.2843 120.726 94.2955 120.742 94.2791 120.718C94.2806 120.722 94.2781 120.72 94.2823 120.712C94.2693 120.725 94.209 120.712 94.1834 120.7C94.0971 120.669 94.0113 120.635 93.9519 120.586C93.8325 120.487 93.7191 120.386 93.6256 120.272C93.4936 120.107 93.3639 119.93 93.2879 119.731C93.2412 119.617 93.2224 119.495 93.2207 119.375C93.2277 119.303 93.2686 119.243 93.3063 119.195C93.3285 119.166 93.3723 119.173 93.3922 119.205C93.4127 119.248 93.4474 119.289 93.4737 119.329C93.5914 119.588 93.7686 119.832 93.972 120.08C94.0955 120.226 94.2341 120.37 94.3636 120.516C94.386 120.541 94.4062 120.568 94.4274 120.597L94.4354 120.608L94.4363 120.61L94.4365 120.61L94.4366 120.61L94.3664 120.643V120.643L94.3657 120.644L94.3647 120.646C94.363 120.648 94.3628 120.65 94.3588 120.651C94.3524 120.653 94.3461 120.657 94.3399 120.661C94.3134 120.677 94.2881 120.699 94.2822 120.712C94.2787 120.718 94.2801 120.722 94.2796 120.719C94.2832 120.736 94.2931 120.73 94.2805 120.731C94.2702 120.731 94.26 120.739 94.2711 120.731C94.2749 120.728 94.281 120.721 94.2804 120.718C94.2784 120.715 94.2834 120.722 94.2946 120.722Z" fill="#1D4A41"/>
<path d="M93.3883 117.619C93.2917 117.61 93.221 117.573 93.1807 117.525C93.1224 117.464 93.066 117.397 93.036 117.321C92.9752 117.169 92.9294 117.009 92.9055 116.845C92.8875 116.728 92.8786 116.61 92.873 116.491C92.8744 116.372 92.8795 116.254 92.8916 116.136C92.9022 116.001 92.9414 115.868 92.9827 115.739C93.0106 115.663 93.0544 115.606 93.0901 115.557C93.1124 115.528 93.1417 115.544 93.1451 115.587C93.145 115.641 93.1622 115.7 93.1671 115.756C93.1822 115.931 93.1807 116.102 93.1867 116.274C93.1975 116.445 93.2057 116.616 93.2269 116.785C93.2527 116.988 93.3062 117.185 93.364 117.379C93.3766 117.449 93.4068 117.512 93.3883 117.619Z" fill="#1D4A41"/>
<path d="M95.3013 118.647C95.254 118.654 95.1993 118.66 95.1571 118.656C95.1154 118.652 95.0832 118.639 95.0554 118.625C94.9811 118.587 94.9074 118.542 94.8587 118.484C94.7605 118.367 94.6759 118.239 94.6141 118.103C94.5215 117.908 94.4677 117.699 94.444 117.488C94.4256 117.368 94.4459 117.244 94.4548 117.124C94.462 117.053 94.5105 116.994 94.5398 116.945C94.5592 116.915 94.5953 116.923 94.6102 116.959C94.6306 117.006 94.6631 117.053 94.6739 117.1C94.7567 117.398 94.8325 117.689 94.9463 117.973C95.0158 118.141 95.1137 118.298 95.2152 118.451C95.2331 118.477 95.2491 118.504 95.2654 118.535C95.2761 118.569 95.3175 118.588 95.3013 118.647Z" fill="#1D4A41"/>
<path d="M108.767 116.927C108.681 116.782 108.677 116.717 108.681 116.663C108.688 116.592 108.695 116.522 108.723 116.474C108.779 116.376 108.84 116.285 108.917 116.21C109.027 116.102 109.135 115.993 109.26 115.897C109.329 115.841 109.414 115.797 109.49 115.744C109.539 115.717 109.608 115.718 109.665 115.715C109.699 115.714 109.727 115.744 109.722 115.779C109.714 115.821 109.706 115.867 109.687 115.902C109.621 116.009 109.548 116.112 109.469 116.209C109.387 116.304 109.3 116.395 109.214 116.487C109.114 116.598 109.016 116.714 108.908 116.819C108.87 116.856 108.825 116.884 108.767 116.927Z" fill="#1D4A41"/>
<path d="M109.945 114.85C109.899 114.75 109.888 114.668 109.901 114.612C109.915 114.535 109.931 114.457 109.966 114.399C110.037 114.281 110.117 114.173 110.209 114.078C110.342 113.942 110.477 113.808 110.63 113.695C110.717 113.629 110.808 113.567 110.903 113.511C110.932 113.497 110.959 113.483 110.995 113.483C111.018 113.479 111.046 113.473 111.078 113.467C111.108 113.461 111.121 113.487 111.105 113.522C111.081 113.564 111.072 113.625 111.042 113.661C110.955 113.784 110.855 113.892 110.761 114.007C110.665 114.119 110.559 114.222 110.461 114.331C110.343 114.462 110.234 114.603 110.115 114.733C110.095 114.756 110.073 114.777 110.048 114.799C110.036 114.811 110.023 114.822 110.009 114.834C109.993 114.844 109.968 114.845 109.945 114.85Z" fill="#1D4A41"/>
<path d="M106.431 116.888C106.427 116.853 106.431 116.825 106.422 116.774C106.419 116.732 106.426 116.704 106.433 116.678C106.454 116.611 106.476 116.544 106.513 116.503C106.589 116.418 106.668 116.34 106.754 116.274C106.881 116.183 107.013 116.099 107.145 116.012C107.222 115.964 107.315 115.935 107.403 115.898C107.462 115.883 107.527 115.889 107.585 115.895C107.621 115.9 107.648 115.938 107.633 115.967C107.61 115.999 107.601 116.05 107.578 116.085C107.423 116.293 107.201 116.431 106.999 116.588C106.873 116.676 106.755 116.777 106.626 116.863C106.604 116.878 106.58 116.891 106.554 116.904C106.521 116.906 106.518 116.964 106.431 116.888Z" fill="#1D4A41"/>
<path d="M122.923 88.1996C123.18 87.9466 123.582 87.7912 123.975 87.6082C124.491 87.3722 125.006 87.0965 125.505 86.7903C126.51 86.1738 127.401 85.3503 127.966 84.3279C128.367 83.5946 128.597 82.7726 128.727 81.9346C128.857 81.095 128.885 80.2339 128.868 79.3795C128.846 78.3999 128.759 77.4203 128.592 76.4554C128.494 75.8871 128.435 75.4241 128.379 75.017C128.358 74.8975 128.35 74.8566 128.371 74.881C128.389 74.9063 128.453 74.9924 128.52 75.143C128.649 75.5411 128.756 75.9642 128.84 76.3836C129.099 77.706 129.206 79.0568 129.17 80.4033C129.132 81.7401 128.989 83.1302 128.355 84.3694C127.981 85.1034 127.448 85.7555 126.821 86.2871C126.508 86.5544 126.173 86.7959 125.821 87.0076C125.472 87.2238 125.107 87.4127 124.732 87.5773C124.211 87.8097 123.667 87.9856 122.923 88.1996Z" fill="#DB9E7B"/>
<path d="M69.1078 213.099C69.1078 213.709 68.9921 214.161 68.7609 214.455C68.5297 214.749 68.1618 215.044 67.6573 215.338C67.363 215.506 67.0057 215.664 66.5853 215.811C66.1649 215.958 65.6919 216.084 65.1664 216.189C64.6619 216.294 64.1259 216.378 63.5583 216.441C63.0118 216.504 62.4652 216.536 61.9187 216.536C60.4052 216.536 58.9968 216.347 57.6936 215.968C56.4113 215.569 55.2867 214.959 54.3197 214.14C53.3528 213.32 52.596 212.279 52.0495 211.018C51.503 209.757 51.2297 208.243 51.2297 206.478C51.2297 204.817 51.503 203.356 52.0495 202.095C52.6171 200.813 53.3738 199.751 54.3197 198.91C55.2867 198.048 56.4113 197.407 57.6936 196.987C58.9968 196.545 60.3947 196.325 61.8872 196.325C63.8421 196.325 65.3976 196.629 66.5537 197.239C67.7099 197.849 68.2879 198.626 68.2879 199.572C68.2879 200.056 68.1618 200.487 67.9096 200.865C67.6573 201.222 67.363 201.506 67.0267 201.716C66.5012 201.38 65.839 201.065 65.0403 200.771C64.2625 200.476 63.3376 200.329 62.2655 200.329C61.3827 200.329 60.5734 200.476 59.8377 200.771C59.123 201.044 58.5028 201.443 57.9773 201.969C57.4518 202.494 57.0419 203.135 56.7476 203.892C56.4533 204.649 56.3062 205.5 56.3062 206.446C56.3062 207.476 56.4428 208.38 56.7161 209.158C57.0104 209.915 57.4098 210.545 57.9143 211.05C58.4188 211.554 59.0179 211.933 59.7115 212.185C60.4262 212.437 61.1935 212.563 62.0133 212.563C62.5178 212.563 62.9697 212.511 63.3691 212.405C63.7895 212.3 64.1154 212.195 64.3466 212.09V208.527H60.7205C60.5944 208.317 60.4788 208.044 60.3737 207.707C60.2686 207.371 60.216 207.014 60.216 206.635C60.216 205.963 60.3737 205.469 60.689 205.153C61.0043 204.838 61.4142 204.68 61.9187 204.68H67.2159C67.8045 204.68 68.2669 204.849 68.6033 205.185C68.9396 205.5 69.1078 205.952 69.1078 206.541V213.099ZM77.3745 215.968C77.1643 216.032 76.87 216.084 76.4917 216.126C76.1133 216.189 75.6929 216.221 75.2304 216.221C74.2845 216.221 73.6013 216.074 73.1809 215.779C72.7605 215.464 72.5503 214.865 72.5503 213.982V204.365C72.5503 203.777 72.6974 203.272 72.9917 202.852C73.286 202.431 73.6959 202.063 74.2214 201.748C74.9151 201.328 75.7454 201.002 76.7124 200.771C77.7003 200.518 78.7304 200.392 79.8024 200.392C81.9886 200.392 83.0816 201.128 83.0816 202.599C83.0816 202.957 83.0291 203.283 82.924 203.577C82.8189 203.871 82.7033 204.123 82.5771 204.334C82.0937 204.228 81.5051 204.176 80.8114 204.176C80.2018 204.176 79.5922 204.249 78.9826 204.397C78.373 204.544 77.837 204.743 77.3745 204.996V215.968ZM88.9045 210.419C89.1988 211.302 89.7138 211.933 90.4495 212.311C91.1852 212.668 92.0366 212.847 93.0035 212.847C93.8864 212.847 94.7167 212.731 95.4945 212.5C96.2722 212.248 96.9029 211.975 97.3863 211.68C97.7016 211.89 97.9644 212.164 98.1746 212.5C98.3848 212.836 98.4899 213.204 98.4899 213.604C98.4899 214.087 98.3428 214.508 98.0485 214.865C97.7542 215.222 97.3443 215.527 96.8188 215.779C96.3143 216.011 95.7047 216.179 94.99 216.284C94.2963 216.41 93.529 216.473 92.6882 216.473C91.448 216.473 90.3024 216.305 89.2513 215.968C88.2003 215.611 87.2964 215.096 86.5397 214.423C85.7829 213.73 85.1839 212.868 84.7424 211.838C84.322 210.808 84.1118 209.599 84.1118 208.212C84.1118 206.867 84.322 205.7 84.7424 204.712C85.1839 203.724 85.7619 202.904 86.4766 202.253C87.2123 201.601 88.0427 201.128 88.9676 200.834C89.9135 200.518 90.8804 200.361 91.8684 200.361C92.9405 200.361 93.9179 200.529 94.8008 200.865C95.7047 201.18 96.4719 201.632 97.1025 202.221C97.7542 202.81 98.2587 203.514 98.616 204.334C98.9734 205.153 99.1521 206.047 99.1521 207.014C99.1521 207.686 98.9734 208.191 98.616 208.527C98.2587 208.863 97.7542 209.084 97.1025 209.189L88.9045 210.419ZM91.8999 203.924C90.9961 203.924 90.2393 204.207 89.6297 204.775C89.0411 205.322 88.6943 206.12 88.5892 207.171L94.6116 206.194C94.5696 205.647 94.3278 205.132 93.8864 204.649C93.445 204.165 92.7828 203.924 91.8999 203.924ZM106.025 210.419C106.319 211.302 106.834 211.933 107.57 212.311C108.306 212.668 109.157 212.847 110.124 212.847C111.007 212.847 111.837 212.731 112.615 212.5C113.393 212.248 114.023 211.975 114.507 211.68C114.822 211.89 115.085 212.164 115.295 212.5C115.505 212.836 115.61 213.204 115.61 213.604C115.61 214.087 115.463 214.508 115.169 214.865C114.875 215.222 114.465 215.527 113.939 215.779C113.435 216.011 112.825 216.179 112.11 216.284C111.417 216.41 110.649 216.473 109.809 216.473C108.568 216.473 107.423 216.305 106.372 215.968C105.321 215.611 104.417 215.096 103.66 214.423C102.903 213.73 102.304 212.868 101.863 211.838C101.442 210.808 101.232 209.599 101.232 208.212C101.232 206.867 101.442 205.7 101.863 204.712C102.304 203.724 102.882 202.904 103.597 202.253C104.333 201.601 105.163 201.128 106.088 200.834C107.034 200.518 108.001 200.361 108.989 200.361C110.061 200.361 111.038 200.529 111.921 200.865C112.825 201.18 113.592 201.632 114.223 202.221C114.875 202.81 115.379 203.514 115.736 204.334C116.094 205.153 116.272 206.047 116.272 207.014C116.272 207.686 116.094 208.191 115.736 208.527C115.379 208.863 114.875 209.084 114.223 209.189L106.025 210.419ZM109.02 203.924C108.116 203.924 107.36 204.207 106.75 204.775C106.161 205.322 105.815 206.12 105.71 207.171L111.732 206.194C111.69 205.647 111.448 205.132 111.007 204.649C110.565 204.165 109.903 203.924 109.02 203.924ZM128.852 206.32C128.852 205.584 128.632 205.038 128.19 204.68C127.749 204.323 127.16 204.144 126.424 204.144C125.92 204.144 125.457 204.207 125.037 204.334C124.617 204.46 124.228 204.617 123.87 204.807V215.968C123.66 216.032 123.366 216.084 122.987 216.126C122.609 216.189 122.189 216.221 121.726 216.221C120.78 216.221 120.097 216.074 119.677 215.779C119.256 215.464 119.046 214.865 119.046 213.982V204.239C119.046 203.692 119.162 203.251 119.393 202.915C119.624 202.578 119.95 202.263 120.37 201.969C121.043 201.485 121.905 201.096 122.956 200.802C124.028 200.508 125.205 200.361 126.487 200.361C128.779 200.361 130.544 200.865 131.785 201.874C133.046 202.883 133.676 204.323 133.676 206.194V215.968C133.445 216.032 133.14 216.084 132.762 216.126C132.384 216.189 131.963 216.221 131.501 216.221C130.555 216.221 129.872 216.074 129.451 215.779C129.052 215.464 128.852 214.865 128.852 213.982V206.32Z" fill="#7BB276"/>
<path d="M150.077 206.446C150.077 204.407 149.573 202.894 148.564 201.906C147.576 200.897 146.283 200.392 144.685 200.392C144.307 200.392 143.95 200.403 143.613 200.424C143.277 200.445 142.941 200.487 142.604 200.55V212.279C142.878 212.342 143.203 212.395 143.582 212.437C143.981 212.458 144.36 212.469 144.717 212.469C146.357 212.469 147.66 211.975 148.627 210.987C149.594 209.978 150.077 208.464 150.077 206.446ZM155.185 206.383C155.185 208.065 154.933 209.536 154.429 210.797C153.924 212.059 153.209 213.11 152.284 213.95C151.381 214.791 150.277 215.422 148.974 215.842C147.691 216.263 146.262 216.473 144.685 216.473C144.328 216.473 143.918 216.462 143.456 216.441C143.014 216.42 142.552 216.378 142.068 216.315C141.606 216.273 141.133 216.2 140.649 216.095C140.166 216.011 139.725 215.895 139.325 215.748C138.232 215.348 137.686 214.634 137.686 213.604V198.595C137.686 198.175 137.791 197.849 138.001 197.617C138.232 197.386 138.558 197.197 138.978 197.05C139.84 196.777 140.755 196.598 141.722 196.514C142.688 196.43 143.571 196.388 144.37 196.388C145.989 196.388 147.46 196.587 148.784 196.987C150.109 197.386 151.244 198.006 152.19 198.847C153.136 199.667 153.871 200.707 154.397 201.969C154.922 203.209 155.185 204.68 155.185 206.383ZM169.004 211.806H162.824C162.592 212.563 162.372 213.309 162.161 214.045C161.972 214.781 161.804 215.432 161.657 216C161.384 216.084 161.1 216.158 160.806 216.221C160.511 216.284 160.154 216.315 159.734 216.315C158.809 216.315 158.104 216.158 157.621 215.842C157.159 215.506 156.927 215.033 156.927 214.423C156.927 214.129 156.969 213.845 157.053 213.572C157.138 213.299 157.232 212.984 157.337 212.626C157.484 212.059 157.695 211.354 157.968 210.514C158.241 209.673 158.535 208.769 158.851 207.802C159.187 206.814 159.534 205.805 159.891 204.775C160.249 203.745 160.595 202.768 160.932 201.843C161.268 200.897 161.573 200.035 161.846 199.257C162.119 198.479 162.351 197.859 162.54 197.397C162.855 197.208 163.339 197.029 163.99 196.861C164.663 196.693 165.325 196.608 165.977 196.608C166.923 196.608 167.753 196.745 168.468 197.018C169.203 197.271 169.676 197.702 169.887 198.311C170.286 199.425 170.717 200.718 171.179 202.189C171.642 203.661 172.104 205.174 172.567 206.73C173.05 208.285 173.513 209.82 173.954 211.333C174.395 212.847 174.784 214.203 175.121 215.401C174.889 215.674 174.543 215.895 174.08 216.063C173.639 216.231 173.103 216.315 172.472 216.315C171.568 216.315 170.927 216.158 170.549 215.842C170.191 215.527 169.929 215.033 169.76 214.36L169.004 211.806ZM165.945 201.023C165.651 201.969 165.283 203.051 164.842 204.27C164.421 205.469 164.022 206.698 163.643 207.96H168.152C167.795 206.635 167.427 205.374 167.049 204.176C166.691 202.957 166.387 201.906 166.134 201.023H165.945ZM196.32 206.415C196.32 208.054 196.068 209.505 195.563 210.766C195.08 212.027 194.396 213.089 193.514 213.95C192.631 214.791 191.59 215.432 190.392 215.874C189.194 216.315 187.891 216.536 186.482 216.536C185.074 216.536 183.771 216.315 182.572 215.874C181.374 215.432 180.334 214.791 179.451 213.95C178.589 213.089 177.906 212.027 177.401 210.766C176.918 209.505 176.676 208.054 176.676 206.415C176.676 204.775 176.928 203.335 177.433 202.095C177.937 200.834 178.631 199.783 179.514 198.942C180.397 198.08 181.427 197.428 182.604 196.987C183.802 196.545 185.095 196.325 186.482 196.325C187.87 196.325 189.162 196.545 190.36 196.987C191.559 197.428 192.599 198.08 193.482 198.942C194.365 199.783 195.059 200.834 195.563 202.095C196.068 203.335 196.32 204.775 196.32 206.415ZM191.212 206.415C191.212 204.397 190.781 202.883 189.919 201.874C189.078 200.844 187.933 200.329 186.482 200.329C185.053 200.329 183.907 200.844 183.045 201.874C182.183 202.883 181.753 204.397 181.753 206.415C181.753 208.454 182.173 209.988 183.014 211.018C183.876 212.027 185.032 212.532 186.482 212.532C187.933 212.532 189.078 212.027 189.919 211.018C190.781 209.988 191.212 208.454 191.212 206.415Z" fill="#5C62D8"/>
</svg>
