<svg xmlns="http://www.w3.org/2000/svg" width="500" height="506" viewBox="0 0 2521 2552" fill="none">
<g clip-path="url(#clip0_1_89)">
<rect width="500" height="506" fill="transparent"/>
<path d="M1945.45 362.508L1956.2 803.914H1916.16C1897.28 693.237 1850.73 604.37 1776.51 537.312C1702.94 469.604 1623.19 435.75 1537.25 435.75C1470.84 435.75 1418.11 453.654 1379.05 489.461C1340.64 524.617 1321.43 565.307 1321.43 611.531C1321.43 640.828 1328.27 666.87 1341.94 689.656C1360.82 720.255 1391.09 750.529 1432.76 780.477C1463.36 801.961 1533.99 840.047 1644.67 894.734C1799.62 970.906 1904.11 1042.85 1958.15 1110.55C2011.53 1178.26 2038.23 1255.74 2038.23 1342.98C2038.23 1453.65 1994.93 1549.03 1908.34 1629.11C1822.41 1708.54 1713.03 1748.25 1580.22 1748.25C1538.55 1748.25 1499.16 1744.02 1462.05 1735.55C1424.95 1727.09 1378.4 1711.14 1322.41 1687.7C1291.16 1674.68 1265.44 1668.17 1245.26 1668.17C1228.33 1668.17 1210.43 1674.68 1191.55 1687.7C1172.67 1700.72 1157.37 1720.58 1145.65 1747.27H1109.52V1247.27H1145.65C1174.29 1387.9 1229.31 1495.32 1310.69 1569.54C1392.72 1643.11 1480.93 1679.89 1575.34 1679.89C1648.25 1679.89 1706.2 1660.03 1749.16 1620.32C1792.78 1580.61 1814.59 1534.38 1814.59 1481.65C1814.59 1450.4 1806.13 1420.12 1789.2 1390.83C1772.93 1361.53 1747.86 1333.86 1714.01 1307.82C1680.15 1281.13 1620.26 1246.62 1534.32 1204.3C1413.88 1145.06 1327.29 1094.6 1274.55 1052.94C1221.82 1011.27 1181.13 964.721 1152.48 913.289C1124.49 861.857 1110.49 805.216 1110.49 743.367C1110.49 637.898 1149.23 548.055 1226.7 473.836C1304.18 399.617 1401.83 362.508 1519.67 362.508C1562.64 362.508 1604.31 367.716 1644.67 378.133C1675.27 385.945 1712.38 400.594 1756 422.078C1800.27 442.911 1831.2 453.328 1848.77 453.328C1865.7 453.328 1879.05 448.12 1888.81 437.703C1898.58 427.286 1907.69 402.221 1916.16 362.508H1945.45Z" fill="black"/>
<path d="M1955.21 268.334V796.166H1911.41C1878.46 658.406 1817.07 552.839 1727.23 479.467C1637.38 406.094 1535.56 369.408 1421.76 369.408C1326.67 369.408 1239.45 396.736 1160.09 451.391C1080.73 506.046 1022.7 577.546 986.016 665.893C938.848 778.946 915.264 904.727 915.264 1043.24C915.264 1179.5 932.484 1303.78 966.924 1416.09C1001.36 1527.64 1055.27 1612.25 1128.64 1669.9C1202.01 1726.8 1297.1 1755.25 1413.9 1755.25C1509.73 1755.25 1597.33 1734.28 1676.69 1692.36C1756.8 1650.43 1841.03 1578.18 1929.38 1475.61V1607.01C1844.02 1696.1 1754.93 1760.86 1662.09 1801.29C1570 1840.97 1462.19 1860.81 1338.65 1860.81C1176.18 1860.81 1031.69 1828.25 905.156 1763.11C779.375 1697.97 682.044 1604.39 613.164 1482.35C545.033 1360.31 510.967 1230.41 510.967 1092.65C510.967 947.403 548.776 809.643 624.395 679.369C700.762 549.096 803.333 448.021 932.109 376.146C1061.63 304.271 1199.02 268.334 1344.27 268.334C1451.33 268.334 1564.38 291.544 1683.43 337.963C1752.31 364.916 1796.11 378.393 1814.82 378.393C1838.78 378.393 1859.37 369.783 1876.59 352.562C1894.56 334.594 1906.17 306.518 1911.41 268.334H1955.21Z" fill="black"/>
<path d="M1813 1493.56C1813 1643.47 1638.26 1765 1422.7 1765C1207.15 1765 1032.41 1643.47 1032.41 1493.56C1032.41 1343.64 1004.01 1058.51 1422.7 1222.11C1638.26 1222.11 1813 1343.64 1813 1493.56Z" fill="white"/>
<path d="M494 2337C479.333 2337 464.667 2335.83 450 2333.5C435.333 2331.5 421.5 2328.33 408.5 2324C395.5 2319.33 383.833 2313.67 373.5 2307C367.5 2303 363.333 2298.17 361 2292.5C358.667 2286.83 357.833 2281.33 358.5 2276C359.5 2270.33 361.667 2265.5 365 2261.5C368.667 2257.17 373.167 2254.5 378.5 2253.5C383.833 2252.5 389.667 2254 396 2258C410.667 2266.67 426.167 2273 442.5 2277C458.833 2281 476 2283 494 2283C520.333 2283 539.5 2278.67 551.5 2270C563.5 2261 569.5 2249.5 569.5 2235.5C569.5 2223.83 565.167 2214.67 556.5 2208C548.167 2201.33 533.667 2195.83 513 2191.5L458 2180C426.333 2173.33 402.667 2162.17 387 2146.5C371.667 2130.5 364 2109.5 364 2083.5C364 2067.17 367.333 2052.33 374 2039C380.667 2025.67 390 2014.17 402 2004.5C414.333 1994.83 428.833 1987.5 445.5 1982.5C462.5 1977.17 481.167 1974.5 501.5 1974.5C521.5 1974.5 540.5 1977 558.5 1982C576.5 1987 592.667 1994.33 607 2004C612.333 2007.67 615.833 2012.17 617.5 2017.5C619.5 2022.83 620 2028.17 619 2033.5C618 2038.5 615.667 2042.83 612 2046.5C608.333 2050.17 603.667 2052.33 598 2053C592.667 2053.67 586.5 2052 579.5 2048C567.167 2041 554.667 2036 542 2033C529.333 2030 515.667 2028.5 501 2028.5C485.667 2028.5 472.5 2030.67 461.5 2035C450.5 2039.33 442 2045.5 436 2053.5C430.333 2061.17 427.5 2070.33 427.5 2081C427.5 2093 431.5 2102.67 439.5 2110C447.5 2117 461.167 2122.5 480.5 2126.5L535 2138C568 2145 592.5 2156 608.5 2171C624.833 2186 633 2206 633 2231C633 2247 629.667 2261.5 623 2274.5C616.667 2287.5 607.333 2298.67 595 2308C583 2317.33 568.5 2324.5 551.5 2329.5C534.5 2334.5 515.333 2337 494 2337ZM851.93 2337C815.263 2337 783.763 2329.67 757.43 2315C731.43 2300 711.43 2279 697.43 2252C683.43 2224.67 676.43 2192.5 676.43 2155.5C676.43 2127.83 680.43 2103 688.43 2081C696.43 2058.67 707.93 2039.67 722.93 2024C737.93 2008 756.263 1995.83 777.93 1987.5C799.93 1978.83 824.596 1974.5 851.93 1974.5C870.263 1974.5 888.263 1976.83 905.93 1981.5C923.596 1986.17 939.096 1992.83 952.43 2001.5C959.43 2005.83 964.096 2011.17 966.43 2017.5C968.763 2023.5 969.263 2029.5 967.93 2035.5C966.596 2041.17 963.763 2046 959.43 2050C955.43 2054 950.263 2056.33 943.93 2057C937.93 2057.33 931.263 2055.17 923.93 2050.5C913.596 2043.83 902.43 2039 890.43 2036C878.43 2033 866.263 2031.5 853.93 2031.5C830.263 2031.5 810.263 2036.33 793.93 2046C777.596 2055.67 765.263 2069.67 756.93 2088C748.596 2106.33 744.43 2128.83 744.43 2155.5C744.43 2181.83 748.596 2204.33 756.93 2223C765.263 2241.67 777.596 2255.83 793.93 2265.5C810.263 2275.17 830.263 2280 853.93 2280C866.596 2280 879.096 2278.5 891.43 2275.5C903.763 2272.17 915.43 2267.17 926.43 2260.5C933.763 2256.17 940.263 2254.33 945.93 2255C951.93 2255.33 956.93 2257.33 960.93 2261C964.93 2264.67 967.596 2269.33 968.93 2275C970.263 2280.33 969.93 2286 967.93 2292C965.93 2297.67 961.93 2302.67 955.93 2307C942.596 2316.67 926.596 2324.17 907.93 2329.5C889.596 2334.5 870.93 2337 851.93 2337ZM1059.77 2336C1049.44 2336 1041.44 2333.17 1035.77 2327.5C1030.44 2321.5 1027.77 2313.33 1027.77 2303V2008.5C1027.77 1997.83 1030.44 1989.67 1035.77 1984C1041.44 1978.33 1049.44 1975.5 1059.77 1975.5C1070.11 1975.5 1077.94 1978.33 1083.27 1984C1088.94 1989.67 1091.77 1997.83 1091.77 2008.5V2126.5H1273.27V2008.5C1273.27 1997.83 1275.94 1989.67 1281.27 1984C1286.94 1978.33 1294.94 1975.5 1305.27 1975.5C1315.61 1975.5 1323.44 1978.33 1328.77 1984C1334.44 1989.67 1337.27 1997.83 1337.27 2008.5V2303C1337.27 2313.33 1334.44 2321.5 1328.77 2327.5C1323.44 2333.17 1315.61 2336 1305.27 2336C1294.94 2336 1286.94 2333.17 1281.27 2327.5C1275.94 2321.5 1273.27 2313.33 1273.27 2303V2180H1091.77V2303C1091.77 2313.33 1089.11 2321.5 1083.77 2327.5C1078.44 2333.17 1070.44 2336 1059.77 2336ZM1448.49 2332C1437.49 2332 1428.99 2329.17 1422.99 2323.5C1417.33 2317.5 1414.49 2309 1414.49 2298V2013.5C1414.49 2002.5 1417.33 1994.17 1422.99 1988.5C1428.99 1982.5 1437.49 1979.5 1448.49 1979.5H1626.99C1635.33 1979.5 1641.66 1981.67 1645.99 1986C1650.66 1990.33 1652.99 1996.5 1652.99 2004.5C1652.99 2012.83 1650.66 2019.33 1645.99 2024C1641.66 2028.33 1635.33 2030.5 1626.99 2030.5H1475.99V2127.5H1615.99C1624.66 2127.5 1631.16 2129.67 1635.49 2134C1639.83 2138.33 1641.99 2144.67 1641.99 2153C1641.99 2161.33 1639.83 2167.67 1635.49 2172C1631.16 2176.33 1624.66 2178.5 1615.99 2178.5H1475.99V2281H1626.99C1635.33 2281 1641.66 2283.17 1645.99 2287.5C1650.66 2291.83 1652.99 2298.17 1652.99 2306.5C1652.99 2314.83 1650.66 2321.17 1645.99 2325.5C1641.66 2329.83 1635.33 2332 1626.99 2332H1448.49ZM1876.34 2337C1839.68 2337 1808.18 2329.67 1781.84 2315C1755.84 2300 1735.84 2279 1721.84 2252C1707.84 2224.67 1700.84 2192.5 1700.84 2155.5C1700.84 2127.83 1704.84 2103 1712.84 2081C1720.84 2058.67 1732.34 2039.67 1747.34 2024C1762.34 2008 1780.68 1995.83 1802.34 1987.5C1824.34 1978.83 1849.01 1974.5 1876.34 1974.5C1894.68 1974.5 1912.68 1976.83 1930.34 1981.5C1948.01 1986.17 1963.51 1992.83 1976.84 2001.5C1983.84 2005.83 1988.51 2011.17 1990.84 2017.5C1993.18 2023.5 1993.68 2029.5 1992.34 2035.5C1991.01 2041.17 1988.18 2046 1983.84 2050C1979.84 2054 1974.68 2056.33 1968.34 2057C1962.34 2057.33 1955.68 2055.17 1948.34 2050.5C1938.01 2043.83 1926.84 2039 1914.84 2036C1902.84 2033 1890.68 2031.5 1878.34 2031.5C1854.68 2031.5 1834.68 2036.33 1818.34 2046C1802.01 2055.67 1789.68 2069.67 1781.34 2088C1773.01 2106.33 1768.84 2128.83 1768.84 2155.5C1768.84 2181.83 1773.01 2204.33 1781.34 2223C1789.68 2241.67 1802.01 2255.83 1818.34 2265.5C1834.68 2275.17 1854.68 2280 1878.34 2280C1891.01 2280 1903.51 2278.5 1915.84 2275.5C1928.18 2272.17 1939.84 2267.17 1950.84 2260.5C1958.18 2256.17 1964.68 2254.33 1970.34 2255C1976.34 2255.33 1981.34 2257.33 1985.34 2261C1989.34 2264.67 1992.01 2269.33 1993.34 2275C1994.68 2280.33 1994.34 2286 1992.34 2292C1990.34 2297.67 1986.34 2302.67 1980.34 2307C1967.01 2316.67 1951.01 2324.17 1932.34 2329.5C1914.01 2334.5 1895.34 2337 1876.34 2337ZM2084.19 2336C2073.85 2336 2065.85 2333.17 2060.19 2327.5C2054.85 2321.5 2052.19 2313.33 2052.19 2303V2008C2052.19 1997.33 2054.85 1989.33 2060.19 1984C2065.85 1978.33 2073.85 1975.5 2084.19 1975.5C2094.52 1975.5 2102.35 1978.33 2107.69 1984C2113.35 1989.33 2116.19 1997.33 2116.19 2008V2135.5H2117.19L2260.69 1991.5C2266.02 1986.17 2271.35 1982.17 2276.69 1979.5C2282.02 1976.83 2288.02 1975.5 2294.69 1975.5C2304.35 1975.5 2311.19 1978 2315.19 1983C2319.52 1988 2321.19 1993.83 2320.19 2000.5C2319.52 2007.17 2316.35 2013.33 2310.69 2019L2164.69 2163.5L2165.19 2134.5L2317.69 2289.5C2324.69 2296.17 2328.35 2303.17 2328.69 2310.5C2329.02 2317.83 2326.69 2324 2321.69 2329C2317.02 2333.67 2310.02 2336 2300.69 2336C2292.69 2336 2286.19 2334.33 2281.19 2331C2276.52 2327.67 2271.02 2322.83 2264.69 2316.5L2117.19 2169H2116.19V2303C2116.19 2313.33 2113.52 2321.5 2108.19 2327.5C2102.85 2333.17 2094.85 2336 2084.19 2336Z" fill="black"/>
</g>
<defs>
<clipPath id="clip0_1_89">
<rect width="2521" height="2552" fill="white"/>
</clipPath>
</defs>
</svg>